<svg width="405" height="95" viewBox="0 0 405 95" xmlns="http://www.w3.org/2000/svg"><title>assess-gray</title><g fill="#000" fill-rule="evenodd"><g transform="translate(0 4)"><circle cx="9.5" cy="9.5" r="9.5"/><circle opacity=".6" cx="9.5" cy="46.5" r="9.5"/><path d="M0 81.5a9.5 9.5 0 1 0 19 0 9.5 9.5 0 0 0-19 0z" opacity=".4"/></g><path d="M86.994 7h8.296l36.356 86.376h-9.028l-9.394-22.936h-45.75l-9.76 22.936h-8.418L86.994 7zm3.782 8.784L70.646 63.12h39.65l-19.52-47.336zm51.362 63.196c1.545 3.01 3.823 5.307 6.832 6.893 3.01 1.586 6.181 2.379 9.516 2.379 1.545 0 3.09-.244 4.636-.732 1.545-.488 2.928-1.18 4.148-2.074a11.309 11.309 0 0 0 2.989-3.233c.773-1.26 1.159-2.704 1.159-4.331 0-2.603-.834-4.555-2.501-5.856-1.667-1.301-3.721-2.318-6.161-3.05-2.44-.732-5.124-1.362-8.052-1.891-2.928-.529-5.612-1.342-8.052-2.44-2.44-1.098-4.494-2.623-6.161-4.575-1.667-1.952-2.501-4.717-2.501-8.296 0-2.765.57-5.165 1.708-7.198 1.139-2.033 2.623-3.721 4.453-5.063 1.83-1.342 3.884-2.338 6.161-2.989a25.192 25.192 0 0 1 6.954-.976c4.636 0 8.642.854 12.017 2.562 3.375 1.708 5.998 4.392 7.869 8.052l-6.588 3.904c-1.383-2.603-3.111-4.575-5.185-5.917-2.074-1.342-4.778-2.013-8.113-2.013-1.301 0-2.664.203-4.087.61-1.423.407-2.704.976-3.843 1.708a9.916 9.916 0 0 0-2.867 2.806c-.773 1.139-1.159 2.44-1.159 3.904 0 2.521.834 4.392 2.501 5.612 1.667 1.22 3.721 2.176 6.161 2.867 2.44.691 5.124 1.281 8.052 1.769s5.612 1.281 8.052 2.379a16.46 16.46 0 0 1 6.161 4.758c1.667 2.074 2.501 5.022 2.501 8.845 0 2.928-.549 5.47-1.647 7.625a15.768 15.768 0 0 1-4.514 5.429c-1.911 1.464-4.087 2.562-6.527 3.294-2.44.732-5.002 1.098-7.686 1.098-4.88 0-9.333-.935-13.359-2.806-4.026-1.87-7.137-4.758-9.333-8.662l6.466-4.392zm51.972 0c1.545 3.01 3.823 5.307 6.832 6.893 3.01 1.586 6.181 2.379 9.516 2.379 1.545 0 3.09-.244 4.636-.732 1.545-.488 2.928-1.18 4.148-2.074a11.309 11.309 0 0 0 2.989-3.233c.773-1.26 1.159-2.704 1.159-4.331 0-2.603-.834-4.555-2.501-5.856-1.667-1.301-3.721-2.318-6.161-3.05-2.44-.732-5.124-1.362-8.052-1.891-2.928-.529-5.612-1.342-8.052-2.44-2.44-1.098-4.494-2.623-6.161-4.575-1.667-1.952-2.501-4.717-2.501-8.296 0-2.765.57-5.165 1.708-7.198 1.139-2.033 2.623-3.721 4.453-5.063 1.83-1.342 3.884-2.338 6.161-2.989a25.192 25.192 0 0 1 6.954-.976c4.636 0 8.642.854 12.017 2.562 3.375 1.708 5.998 4.392 7.869 8.052l-6.588 3.904c-1.383-2.603-3.111-4.575-5.185-5.917-2.074-1.342-4.778-2.013-8.113-2.013-1.301 0-2.664.203-4.087.61-1.423.407-2.704.976-3.843 1.708a9.916 9.916 0 0 0-2.867 2.806c-.773 1.139-1.159 2.44-1.159 3.904 0 2.521.834 4.392 2.501 5.612 1.667 1.22 3.721 2.176 6.161 2.867 2.44.691 5.124 1.281 8.052 1.769s5.612 1.281 8.052 2.379a16.46 16.46 0 0 1 6.161 4.758c1.667 2.074 2.501 5.022 2.501 8.845 0 2.928-.549 5.47-1.647 7.625a15.768 15.768 0 0 1-4.514 5.429c-1.911 1.464-4.087 2.562-6.527 3.294-2.44.732-5.002 1.098-7.686 1.098-4.88 0-9.333-.935-13.359-2.806-4.026-1.87-7.137-4.758-9.333-8.662l6.466-4.392zm101.626 3.782c-2.847 4.31-6.364 7.401-10.553 9.272-4.189 1.87-8.804 2.806-13.847 2.806-4.31 0-8.215-.732-11.712-2.196-3.497-1.464-6.507-3.518-9.028-6.161-2.521-2.643-4.453-5.775-5.795-9.394-1.342-3.62-2.013-7.625-2.013-12.017 0-4.23.691-8.133 2.074-11.712 1.383-3.579 3.335-6.69 5.856-9.333s5.49-4.717 8.906-6.222c3.416-1.505 7.198-2.257 11.346-2.257 4.31 0 8.113.752 11.407 2.257 3.294 1.505 6.06 3.497 8.296 5.978a25.305 25.305 0 0 1 5.063 8.479c1.139 3.172 1.708 6.385 1.708 9.638v5.124h-47.336c0 1.545.305 3.518.915 5.917.61 2.4 1.728 4.738 3.355 7.015 1.627 2.277 3.802 4.23 6.527 5.856 2.725 1.627 6.242 2.44 10.553 2.44 3.741 0 7.36-.895 10.858-2.684 3.497-1.79 6.181-4.23 8.052-7.32l5.368 4.514zm-5.612-22.326c0-2.521-.508-4.88-1.525-7.076a18.918 18.918 0 0 0-4.148-5.795c-1.749-1.667-3.823-2.989-6.222-3.965-2.4-.976-4.941-1.464-7.625-1.464-3.985 0-7.3.813-9.943 2.44s-4.738 3.497-6.283 5.612-2.643 4.168-3.294 6.161c-.65 1.993-.976 3.355-.976 4.087h40.016zm23.79 18.544c1.545 3.01 3.823 5.307 6.832 6.893 3.01 1.586 6.181 2.379 9.516 2.379 1.545 0 3.09-.244 4.636-.732 1.545-.488 2.928-1.18 4.148-2.074a11.309 11.309 0 0 0 2.989-3.233c.773-1.26 1.159-2.704 1.159-4.331 0-2.603-.834-4.555-2.501-5.856-1.667-1.301-3.721-2.318-6.161-3.05-2.44-.732-5.124-1.362-8.052-1.891-2.928-.529-5.612-1.342-8.052-2.44-2.44-1.098-4.494-2.623-6.161-4.575-1.667-1.952-2.501-4.717-2.501-8.296 0-2.765.57-5.165 1.708-7.198 1.139-2.033 2.623-3.721 4.453-5.063 1.83-1.342 3.884-2.338 6.161-2.989a25.192 25.192 0 0 1 6.954-.976c4.636 0 8.642.854 12.017 2.562 3.375 1.708 5.998 4.392 7.869 8.052l-6.588 3.904c-1.383-2.603-3.111-4.575-5.185-5.917-2.074-1.342-4.778-2.013-8.113-2.013-1.301 0-2.664.203-4.087.61-1.423.407-2.704.976-3.843 1.708a9.916 9.916 0 0 0-2.867 2.806c-.773 1.139-1.159 2.44-1.159 3.904 0 2.521.834 4.392 2.501 5.612 1.667 1.22 3.721 2.176 6.161 2.867 2.44.691 5.124 1.281 8.052 1.769s5.612 1.281 8.052 2.379a16.46 16.46 0 0 1 6.161 4.758c1.667 2.074 2.501 5.022 2.501 8.845 0 2.928-.549 5.47-1.647 7.625a15.768 15.768 0 0 1-4.514 5.429c-1.911 1.464-4.087 2.562-6.527 3.294-2.44.732-5.002 1.098-7.686 1.098-4.88 0-9.333-.935-13.359-2.806-4.026-1.87-7.137-4.758-9.333-8.662l6.466-4.392zm51.972 0c1.545 3.01 3.823 5.307 6.832 6.893 3.01 1.586 6.181 2.379 9.516 2.379 1.545 0 3.09-.244 4.636-.732 1.545-.488 2.928-1.18 4.148-2.074a11.309 11.309 0 0 0 2.989-3.233c.773-1.26 1.159-2.704 1.159-4.331 0-2.603-.834-4.555-2.501-5.856-1.667-1.301-3.721-2.318-6.161-3.05-2.44-.732-5.124-1.362-8.052-1.891-2.928-.529-5.612-1.342-8.052-2.44-2.44-1.098-4.494-2.623-6.161-4.575-1.667-1.952-2.501-4.717-2.501-8.296 0-2.765.57-5.165 1.708-7.198 1.139-2.033 2.623-3.721 4.453-5.063 1.83-1.342 3.884-2.338 6.161-2.989a25.192 25.192 0 0 1 6.954-.976c4.636 0 8.642.854 12.017 2.562 3.375 1.708 5.998 4.392 7.869 8.052l-6.588 3.904c-1.383-2.603-3.111-4.575-5.185-5.917-2.074-1.342-4.778-2.013-8.113-2.013-1.301 0-2.664.203-4.087.61-1.423.407-2.704.976-3.843 1.708a9.916 9.916 0 0 0-2.867 2.806c-.773 1.139-1.159 2.44-1.159 3.904 0 2.521.834 4.392 2.501 5.612 1.667 1.22 3.721 2.176 6.161 2.867 2.44.691 5.124 1.281 8.052 1.769s5.612 1.281 8.052 2.379a16.46 16.46 0 0 1 6.161 4.758c1.667 2.074 2.501 5.022 2.501 8.845 0 2.928-.549 5.47-1.647 7.625a15.768 15.768 0 0 1-4.514 5.429c-1.911 1.464-4.087 2.562-6.527 3.294-2.44.732-5.002 1.098-7.686 1.098-4.88 0-9.333-.935-13.359-2.806-4.026-1.87-7.137-4.758-9.333-8.662l6.466-4.392z"/></g></svg>