<svg width="442" height="95" viewBox="0 0 442 95" xmlns="http://www.w3.org/2000/svg"><title>interact-gray</title><g fill="#000" fill-rule="evenodd"><g transform="translate(0 4)"><circle cx="9.5" cy="9.5" r="9.5"/><circle opacity=".6" cx="9.5" cy="46.5" r="9.5"/><path d="M0 81.5a9.5 9.5 0 1 0 19 0 9.5 9.5 0 0 0-19 0z" opacity=".4"/></g><path d="M49.296 7h8.052v86.376h-8.052V7zm29.646 45.872c0-1.057-.04-2.338-.122-3.843a165.36 165.36 0 0 1-.183-4.575c-.04-1.545-.102-2.989-.183-4.331-.081-1.342-.122-2.379-.122-3.111h7.32c.081 2.115.142 4.148.183 6.1.04 1.952.142 3.213.305 3.782h.366c1.464-3.09 3.904-5.754 7.32-7.991 3.416-2.237 7.401-3.355 11.956-3.355 4.392 0 7.97.691 10.736 2.074 2.765 1.383 4.941 3.192 6.527 5.429 1.586 2.237 2.684 4.819 3.294 7.747a44.15 44.15 0 0 1 .915 9.028v33.55h-7.32V60.192c0-2.277-.203-4.494-.61-6.649-.407-2.155-1.118-4.087-2.135-5.795-1.017-1.708-2.44-3.07-4.27-4.087-1.83-1.017-4.209-1.525-7.137-1.525-2.684 0-5.226.468-7.625 1.403a16.404 16.404 0 0 0-6.222 4.27c-1.749 1.911-3.131 4.31-4.148 7.198-1.017 2.887-1.525 6.283-1.525 10.187v28.182h-7.32V52.872zm95.404-9.272h-16.104v36.722c0 2.521.691 4.473 2.074 5.856s3.294 2.074 5.734 2.074c1.383 0 2.786-.183 4.209-.549a26.877 26.877 0 0 0 4.087-1.403l.61 6.588c-1.383.488-2.969.935-4.758 1.342-1.79.407-3.375.61-4.758.61-2.603 0-4.84-.386-6.71-1.159s-3.375-1.81-4.514-3.111c-1.139-1.301-1.972-2.826-2.501-4.575-.529-1.749-.793-3.64-.793-5.673V43.6h-12.2v-6.588h12.2V20.786h7.32v16.226h16.104V43.6zm62.83 39.162c-2.847 4.31-6.364 7.401-10.553 9.272-4.189 1.87-8.804 2.806-13.847 2.806-4.31 0-8.215-.732-11.712-2.196-3.497-1.464-6.507-3.518-9.028-6.161-2.521-2.643-4.453-5.775-5.795-9.394-1.342-3.62-2.013-7.625-2.013-12.017 0-4.23.691-8.133 2.074-11.712 1.383-3.579 3.335-6.69 5.856-9.333s5.49-4.717 8.906-6.222c3.416-1.505 7.198-2.257 11.346-2.257 4.31 0 8.113.752 11.407 2.257 3.294 1.505 6.06 3.497 8.296 5.978a25.305 25.305 0 0 1 5.063 8.479c1.139 3.172 1.708 6.385 1.708 9.638v5.124h-47.336c0 1.545.305 3.518.915 5.917.61 2.4 1.728 4.738 3.355 7.015 1.627 2.277 3.802 4.23 6.527 5.856 2.725 1.627 6.242 2.44 10.553 2.44 3.741 0 7.36-.895 10.858-2.684 3.497-1.79 6.181-4.23 8.052-7.32l5.368 4.514zm-5.612-22.326c0-2.521-.508-4.88-1.525-7.076a18.918 18.918 0 0 0-4.148-5.795c-1.749-1.667-3.823-2.989-6.222-3.965-2.4-.976-4.941-1.464-7.625-1.464-3.985 0-7.3.813-9.943 2.44s-4.738 3.497-6.283 5.612-2.643 4.168-3.294 6.161c-.65 1.993-.976 3.355-.976 4.087h40.016zm23.668-7.564c0-1.057-.04-2.338-.122-3.843a165.36 165.36 0 0 1-.183-4.575c-.04-1.545-.102-2.989-.183-4.331-.081-1.342-.122-2.379-.122-3.111h7.32c.081 2.115.142 4.148.183 6.1.04 1.952.142 3.213.305 3.782 1.87-3.335 4.27-6.06 7.198-8.174 2.928-2.115 6.507-3.172 10.736-3.172.732 0 1.444.061 2.135.183.691.122 1.403.264 2.135.427l-.854 7.198c-.976-.325-1.911-.488-2.806-.488-3.172 0-5.917.508-8.235 1.525-2.318 1.017-4.23 2.42-5.734 4.209-1.505 1.79-2.623 3.884-3.355 6.283-.732 2.4-1.098 4.982-1.098 7.747v30.744h-7.32V52.872zm84.424 16.836c0 2.765.02 5.246.061 7.442.04 2.196.102 4.23.183 6.1.081 1.87.183 3.62.305 5.246.122 1.627.305 3.253.549 4.88h-6.832c-.488-2.765-.732-5.815-.732-9.15h-.244c-2.115 3.66-4.738 6.344-7.869 8.052-3.131 1.708-7.096 2.562-11.895 2.562-2.44 0-4.84-.305-7.198-.915-2.359-.61-4.473-1.586-6.344-2.928-1.87-1.342-3.396-3.07-4.575-5.185-1.18-2.115-1.769-4.677-1.769-7.686 0-4.31 1.098-7.727 3.294-10.248 2.196-2.521 4.9-4.412 8.113-5.673 3.213-1.26 6.629-2.074 10.248-2.44 3.62-.366 6.812-.549 9.577-.549h8.54V55.8c0-4.88-1.505-8.377-4.514-10.492-3.01-2.115-6.791-3.172-11.346-3.172-6.507 0-12.24 2.115-17.202 6.344l-4.27-5.002c2.684-2.603 6.019-4.575 10.004-5.917 3.985-1.342 7.808-2.013 11.468-2.013 6.832 0 12.281 1.606 16.348 4.819 4.067 3.213 6.1 8.398 6.1 15.555v13.786zm-14.64-4.636c-3.09 0-6.08.203-8.967.61-2.887.407-5.49 1.098-7.808 2.074-2.318.976-4.168 2.277-5.551 3.904-1.383 1.627-2.074 3.66-2.074 6.1 0 1.708.386 3.233 1.159 4.575a10.127 10.127 0 0 0 2.989 3.294 14.054 14.054 0 0 0 4.087 1.952c1.505.447 3.03.671 4.575.671 3.904 0 7.117-.57 9.638-1.708 2.521-1.139 4.534-2.623 6.039-4.453a15.49 15.49 0 0 0 3.111-6.222c.57-2.318.854-4.656.854-7.015v-3.782h-8.052zM406.39 85.08c-2.765 3.335-5.897 5.795-9.394 7.381-3.497 1.586-7.28 2.379-11.346 2.379-4.31 0-8.296-.732-11.956-2.196-3.66-1.464-6.791-3.518-9.394-6.161-2.603-2.643-4.636-5.775-6.1-9.394-1.464-3.62-2.196-7.584-2.196-11.895 0-4.31.732-8.276 2.196-11.895 1.464-3.62 3.497-6.75 6.1-9.394 2.603-2.643 5.734-4.697 9.394-6.161 3.66-1.464 7.645-2.196 11.956-2.196 4.148 0 7.991.854 11.529 2.562 3.538 1.708 6.69 4.107 9.455 7.198l-5.856 4.392c-2.115-2.359-4.433-4.209-6.954-5.551-2.521-1.342-5.246-2.013-8.174-2.013-3.416 0-6.507.61-9.272 1.83-2.765 1.22-5.124 2.867-7.076 4.941s-3.436 4.514-4.453 7.32c-1.017 2.806-1.525 5.795-1.525 8.967 0 3.172.508 6.161 1.525 8.967 1.017 2.806 2.501 5.246 4.453 7.32 1.952 2.074 4.31 3.721 7.076 4.941 2.765 1.22 5.856 1.83 9.272 1.83 3.09 0 5.917-.712 8.479-2.135 2.562-1.423 4.778-3.314 6.649-5.673l5.612 4.636zm39.04-41.48h-16.104v36.722c0 2.521.691 4.473 2.074 5.856s3.294 2.074 5.734 2.074c1.383 0 2.786-.183 4.209-.549a26.877 26.877 0 0 0 4.087-1.403l.61 6.588c-1.383.488-2.969.935-4.758 1.342-1.79.407-3.375.61-4.758.61-2.603 0-4.84-.386-6.71-1.159s-3.375-1.81-4.514-3.111c-1.139-1.301-1.972-2.826-2.501-4.575-.529-1.749-.793-3.64-.793-5.673V43.6h-12.2v-6.588h12.2V20.786h7.32v16.226h16.104V43.6z"/></g></svg>