<?xml version="1.0" standalone="no"?><!DOCTYPE svg PUBLIC "-//W3C//DTD SVG 1.1//EN" "http://www.w3.org/Graphics/SVG/1.1/DTD/svg11.dtd"><svg class="icon" height="512" viewBox="0 0 1024 1024" version="1.1" xmlns="http://www.w3.org/2000/svg"><path d="M764.157057 164.553996c0-60.284297 48.790546-109.088352 108.988003-109.088352 60.266929 0 109.061335 48.804055 109.061335 109.088352 0 60.203246-48.792476 109.011161-109.061335 109.01116-60.197457 0-108.988003-48.807914-108.988003-109.01116z m-62.268108 476.108738l-30.799237 4.66234c-23.473805 3.332724-34.211083 12.44706-34.211083 28.512452 0 19.099001 11.105865 29.469621 30.880288 29.469621 22.061208 0 43.22893-10.731489 51.600301-26.434082 2.294505-4.374804 2.294505-5.409164 2.294505-14.139474v-8.371372l0.366658-20.077398v-0.362798c-0.366658 0-1.700133 1.044009-2.663092 1.702063-1.995389 1.997319-8.070326 3.705171-17.46834 5.038648zM500.869891 164.553996c205.602278 0 372.273239 166.699908 372.273239 372.356219 0 205.644733-166.670961 372.35043-372.273239 372.350429-205.617716 0-372.280958-166.705697-372.280957-372.350429 0-205.656311 166.663242-372.356219 372.280957-372.356219zM401.72182 693.901415h-122.013996V482.477001h-33.174793V723.07964h155.188789v-29.178225z m369.913122 7.416133c-4.733742 0.962959-7.035966 1.331546-9.77239 1.331546-6.661589 0-9.700988-3.050977-9.700988-10.368691v-100.20173c0-30.880288-24.799561-49.327024-66.343796-49.327024-45.535013 0-69.367756 19.483026-71.006136 58.362239h27.478091c3.330795-23.850111 15.3919-33.850214 40.197251-33.850214 27.099855 0 40.573557 10.000103 40.573556 29.485059 0 18.062711-2.367836 19.388467-50.646991 24.427115-16.435909 1.339265-21.762093 2.373625-30.123816 5.038647-22.808032 7.398764-36.210331 26.146546-36.210331 50.286123 0 32.130783 22.142259 51.617669 58.640127 51.617669 22.437515 0 37.829414-7.408413 59.674487-28.153513 0.962959 17.784823 10.366761 26.443731 28.143865 26.443731 6.651941 0 10.063786-0.667703 19.097071-3.332724v-21.758233zM546.034387 382.649648c0 60.207106 48.863878 109.084492 109.061335 109.084492s109.061335-48.877386 109.061335-109.084492-48.863878-109.082562-109.061335-109.082562-109.061335 48.873527-109.061335 109.082562z m-50.868916 319.999446c-23.473805 0-35.166322-12.35829-35.166322-37.541878V547.798015h-29.845928V678.204611c0 29.467691 23.840462 49.915606 57.684888 49.915606 25.76059 0 43.157528-9.695199 55.604588-30.51363v25.471124h28.497014v-175.281625H542.111151v102.928504c0 9.33433-5.038647 24.444482-11.403051 33.850214-7.408413 11.32393-20.808783 18.074289-35.542629 18.07429zM64.846477 413.67467l33.240405 10.816398-3.707101 11.32779L1.464888 405.604343l3.554649-10.814469 9.324682 3.037469c-0.368587-0.742964-0.810506-1.107692-0.95524-1.485928-5.777752-9.033285-6.524575-13.695626-3.71482-22.362254 5.416883-16.663622 22.364183-23.400473 42.653856-16.812215 22.213661 7.186489 33.093742 23.552926 27.31599 41.32424-2.583971 8.000855-6.812112 12.298467-14.797528 15.183484z m4.951807-17.991309c3.71675-11.183056-3.923236-21.18316-20.278094-26.437942-16.516959-5.405305-26.578816-1.925917-30.656434 10.592545-3.554649 11.102006 4.293753 20.656331 21.474556 26.285489 14.805247 4.814793 25.768309 0.891557 29.459972-10.440092z m-30.422931-93.015241c8.884692-17.404657 28.278949-22.443304 47.748467-12.514602 19.701091 9.996244 27.099855 28.585783 18.143761 46.206575-8.587507 16.808356-28.288598 21.848933-47.603733 11.997422-19.477237-9.845721-26.947403-28.583854-18.288495-45.689395z m23.616608 34.58353c14.805247 7.551217 27.757909 5.256712 33.392858-5.926345 5.546178-10.959202-0.152452-22.7347-14.662444-30.065922-14.814896-7.551217-27.397041-5.256712-33.02234 5.851083-5.625299 11.034464 0 22.883293 14.291926 30.141184z m74.553067-58.429782L102.378706 234.904008l52.049939 21.70034 7.406483-9.847651-43.460503-58.730826-7.254031 9.629586 35.390177 44.728366-52.266075-22.514706-8.000854 10.592545 35.751045 44.286447-52.113622-22.738559-7.848403 10.37255 68.117261 26.214088 7.394905-9.77432z m15.254885-73.464672c-15.768206-17.180803-16.065392-36.729441-0.737174-50.801374 14.284208-13.182305 31.98798-9.774319 49.826836 9.700988L164.276296 198.84034c11.105865 10.887801 20.808783 12.146015 30.133464 3.63184 7.117017-6.520716 8.811361-15.924518 4.301473-22.661369l8.81136-8.222779c2.512569 3.703242 3.988849 8.738029 4.438487 14.515781 0.594371 8.961883-2.663092 16.516959-10.513424 23.697659-5.18338 4.810934-10.513424 7.848402-15.544352 8.811361-11.329719 2.296434-23.029956-2.294505-33.103391-13.255637z m5.040577-13.550893L186.337504 165.588356c-9.548536-9.257139-19.54092-10.220098-27.765628-2.668881-8.282602 7.632267-8.435054 19.701091-0.731386 28.886828z m84.624572-17.771314l-24.363432-34.292133c-5.770033-8.074186-3.465879-18.958127 5.18531-25.106396 0.52297-0.368587 1.709782-1.256285 2.888876-1.922058l-7.101579-10.000103c-1.628732 0.739105-2.815544 1.406807-3.635699 2.07451-5.698631 3.994638-8.145588 11.84497-7.317714 22.142259l-6.821761-9.625727-9.172229 6.514927 40.639169 57.098235 9.699059-6.883514z m2.665021-44.213116c-11.026745-20.517387-6.516856-39.548845 11.779358-49.400355 17.092033-9.257139 33.385138-1.549611 45.893951 21.700339l-44.940642 24.214839c8.074186 13.328968 17.182732 16.889406 28.280879 10.963062 8.514175-4.589009 12.518462-13.328968 9.77432-20.955446l10.584825-5.70635c1.483998 4.224281 1.709782 9.409592 0.754543 15.110153-1.709782 8.811361-6.677028 15.328217-15.99399 20.368793-6.30844 3.404126-12.223206 5.030928-17.261853 4.739532-11.619186-0.596301-21.762093-7.925593-28.871391-21.034567z m8.21699-11.850759l34.137751-18.365686c-7.035966-11.331649-16.51503-14.739635-26.289349-9.480993-9.919053 5.335833-13.033712 17.03414-7.848402 27.846679z m56.567547-25.175868c-7.111227-20.14687-0.810506-37.105748 15.625402-42.87964 8.587507-3.031679 16.138723-1.705923 23.697659 4.000427l0.216135-0.223854-11.84497-33.62636 11.250599-3.994638 31.98798 90.795998-10.656228 3.770783-3.19378-9.104687c-1.773465 9.104687-6.588258 14.666304-15.102433 17.622722-17.840786 6.294932-34.06056-4.002357-41.980364-26.360751z m11.918301-3.336584c5.777752 16.443628 15.777855 23.846252 26.812319 19.923016 6.14055-2.147842 10.80289-7.479815 11.989703-13.851938 0.739105-4.662341 0.297186-8.811361-1.997319-15.403478-6.516856-18.435158-15.554001-25.027275-27.912292-20.733522-11.252528 4.000427-14.365258 14.517711-8.892411 30.065922z m102.776052 7.555076l-10.150626-95.753594 11.916371-1.260144 3.6357 34.809314 1.107692-1.335406c5.480566-7.848402 10.071505-10.737278 18.442876-11.626905 17.02835-1.846796 30.422931 10.88973 32.501301 31.179403 2.59169 24.288171-7.551217 40.731798-26.210228 42.653857-9.324681 1.04015-14.220525-1.03436-20.808783-8.585577l0.891557 8.662768-11.32586 1.256284z m7.993135-34.068279c1.628732 15.482599 9.693269 23.921513 21.545958 22.665228 11.8469-1.258214 17.840786-12.221276 15.986271-29.326817-1.773465-16.883617-9.172229-25.034994-21.61929-23.697659l-0.51525 0.077191c-12.213557 1.771535-17.323606 12.063035-15.397689 30.282057z m78.260168 36.366643l-1.628732 3.479388c-2.59362 5.330043-4.295683 6.512997-9.110476 6.293002-2.663092-0.148593-3.994638-0.443849-6.731062-1.628732l-0.522969 10.81447c3.184132 1.109622 4.374804 1.406807 7.111227 1.557329 3.184132 0.142803 6.956845-0.372447 9.027496-1.115411 5.038647-1.773465 8.739959-7.402624 15.112082-22.142258 1.700133-3.851834 3.176413-7.111227 4.365155-9.922913a466.253368 466.253368 0 0 0 3.996568-9.037144l22.429795-54.502686-13.249847-0.52104-21.17737 56.359131-16.356788-57.989792-13.473702-0.594371 22.873644 72.951351c-1.190672 3.035539-1.773465 4.220422-2.665021 5.999676z m465.002872 409.193728l11.146391-0.650334a485.68622 485.68622 0 0 0-4.751111-44.936782l-11.044112 1.694344a474.331413 474.331413 0 0 1 4.648832 43.892772zM662.519573 77.088793a451.544609 451.544609 0 0 0-43.360154-12.775122l-2.639935 10.853064a441.42486 441.42486 0 0 1 42.308426 12.462499l3.691663-10.540441z m81.847623 38.043619c-13.684047-7.906295-26.764074-14.755073-39.990764-20.938078l-4.741462 10.113961c12.935294 6.05178 25.743222 12.755825 39.153241 20.496159l5.578985-9.672042zM99.875785 813.209865a493.20656 493.20656 0 0 0 27.277395 36.007705l8.587507-7.142104a476.886438 476.886438 0 0 1-26.652148-35.197199l-9.212754 6.331598z m708.554211 86.870831l7.205786 8.539263a487.102676 487.102676 0 0 0 33.11111-30.745204l-7.977697-7.825245a469.657494 469.657494 0 0 1-32.339199 30.031186z m61.72005-62.926161l8.666628 7.037896a485.406402 485.406402 0 0 0 26.804599-36.328048l-9.286086-6.211951a475.676468 475.676468 0 0 1-26.185141 35.502103z m73.171346-503.66981a493.065686 493.065686 0 0 0-20.777906-40.125848l-9.670112 5.586704a481.238084 481.238084 0 0 1 20.295463 39.209204l10.152555-4.67006zM738.788211 949.000538l-2.703617 1.54961 5.546178 9.700988 2.736424-1.572768a498.229769 498.229769 0 0 0 35.453859-22.534003l-6.389491-9.16451a485.33886 485.33886 0 0 1-34.643353 22.020683z m214.934678-266.239724l10.642719 3.417635a492.189568 492.189568 0 0 0 11.819883-43.599447l-10.897449-2.416081a481.295978 481.295978 0 0 1-11.565153 42.597893zM655.738338 986.941879l3.643418 10.54623a486.670406 486.670406 0 0 0 41.978434-16.715726l-4.606377-10.175713a480.828972 480.828972 0 0 1-41.015475 16.345209z m320.680656-434.278896a483.984157 483.984157 0 0 1-3.548859 44.006629l11.082708 1.410667a492.699029 492.699029 0 0 0 3.62798-45.035201l-11.161829-0.382095z m-951.698366 6.833339l-11.161829 0.411043c0.553846 15.077346 1.877673 30.237672 3.907798 45.0352l11.057621-1.514874a446.818586 446.818586 0 0 1-3.80359-43.931369zM919.112343 763.863543l9.822564 5.312675a493.191122 493.191122 0 0 0 19.629689-40.670045l-10.272202-4.382523a480.489331 480.489331 0 0 1-19.180051 39.739893z m54.215149-345.238996a484.875714 484.875714 0 0 0-13.024064-43.271385l-10.528862 3.71675a476.743634 476.743634 0 0 1 12.719159 42.267901l10.833767-2.713266zM157.662951 882.537096a483.60785 483.60785 0 0 0 33.464259 30.303284l7.101578-8.620312a469.186628 469.186628 0 0 1-32.686559-29.604706l-7.879278 7.921734z m412.383649 125.286898l1.621012 11.05762a489.429987 489.429987 0 0 0 44.35399-8.649259l-2.647654-10.849205a478.845161 478.845161 0 0 1-43.327348 8.440844zM25.876565 649.377606a461.187704 461.187704 0 0 0 12.800209 43.350505l10.5443-3.674295a450.570072 450.570072 0 0 1-12.487585-42.308426l-10.856924 2.632216z m3.739907-177.979453l-11.057621-1.588207a526.14399 526.14399 0 0 0-4.533046 44.919414l11.146391 0.629108a513.355359 513.355359 0 0 1 4.444276-43.960315z m25.928481 263.254359a541.972019 541.972019 0 0 0 20.48844 40.204969l9.733794-5.472847a528.884273 528.884273 0 0 1-20.05617-39.379025l-10.166064 4.646903z m426.426634 277.785578l-0.457357 11.161829a487.191446 487.191446 0 0 0 45.189583-0.26438l-0.578933-11.163758c-14.69332 0.789279-29.508217 0.86068-44.153293 0.266309z m-89.912159-0.825945a488.011601 488.011601 0 0 0 44.440829 8.058748l1.485928-11.074989a481.255452 481.255452 0 0 1-43.439275-7.871559l-2.487482 10.8878z m-85.730334-28.217196a487.172148 487.172148 0 0 0 42.211938 16.090479l3.490966-10.617632a475.317529 475.317529 0 0 1-41.24126-15.714172l-4.461644 10.241325z m-79.055235-43.487519a493.536552 493.536552 0 0 0 38.512555 23.578012l5.391796-9.782038a478.071321 478.071321 0 0 1-37.636436-23.047324l-6.267915 9.25135z" fill="" /></svg>