<svg width="2791" height="560" viewBox="0 0 2791 560" xmlns="http://www.w3.org/2000/svg"><title>qualified-logo-gray</title><g transform="translate(40 40)" fill-rule="evenodd"><path d="M475.924 471.95H225.479c-30.692 0-59.747-5.525-87.165-16.574-27.418-11.05-51.357-26.395-71.818-46.038-20.462-19.643-36.626-43.07-48.494-70.284C6.135 311.84.202 282.069.202 249.74c0-31.92 5.728-61.486 17.187-88.7 11.458-27.213 27.315-50.846 47.572-70.898s43.991-35.704 71.205-46.958c27.213-11.254 56.78-16.88 88.7-16.88 30.691 0 59.439 5.524 86.243 16.573 26.804 11.049 50.232 26.292 70.284 45.73 20.052 19.439 35.91 42.355 47.572 68.75 11.663 26.395 17.495 55.143 17.495 86.244 0 18.415-2.149 36.523-6.445 54.325-4.297 17.801-10.64 34.477-19.03 50.027-8.389 15.55-18.824 29.464-31.305 41.741-12.481 12.277-26.702 22.098-42.662 29.464v1.228h128.906v51.562zm-252.9-55.246c23.735 0 45.526-4.4 65.373-13.198 19.848-8.798 36.83-20.87 50.948-36.216 14.119-15.346 25.065-33.454 32.84-54.324 7.776-20.87 11.664-43.173 11.664-66.908 0-22.917-3.99-44.401-11.97-64.453s-19.131-37.444-33.454-52.176-31.306-26.395-50.949-34.989c-19.642-8.594-41.127-12.89-64.452-12.89-22.917 0-44.094 4.296-63.532 12.89-19.439 8.594-36.319 20.257-50.642 34.989-14.323 14.732-25.576 32.021-33.76 51.869-8.185 19.847-12.278 41.024-12.278 63.532 0 23.735 3.888 46.037 11.663 66.908 7.776 20.87 18.722 39.08 32.84 54.631 14.119 15.55 31 27.828 50.642 36.83 19.643 9.003 41.332 13.505 65.067 13.505zm558.59 55.245H726.37v-44.81h-1.228c-6.957 15.55-19.029 28.134-36.216 37.751-17.188 9.617-37.035 14.425-59.542 14.425-14.323 0-27.827-2.148-40.513-6.445-12.686-4.297-23.838-10.947-33.454-19.95-9.617-9.003-17.29-20.563-23.02-34.682-5.728-14.118-8.593-30.794-8.593-50.027V180.99h55.245v171.874c0 13.504 1.842 25.065 5.525 34.682 3.683 9.616 8.594 17.392 14.732 23.325 6.138 5.934 13.197 10.231 21.177 12.891s16.267 3.99 24.86 3.99c11.459 0 22.099-1.842 31.92-5.525 9.821-3.683 18.415-9.514 25.781-17.494s13.095-18.108 17.188-30.385c4.092-12.277 6.138-26.804 6.138-43.582V180.99h55.245v290.958zm84.71-255.356c15.55-14.322 33.556-25.064 54.017-32.226 20.461-7.161 40.922-10.742 61.384-10.742 21.28 0 39.592 2.66 54.938 7.98 15.346 5.32 27.93 12.481 37.75 21.484 9.822 9.003 17.086 19.336 21.792 30.999 4.706 11.663 7.059 23.837 7.059 36.523v148.548c0 10.23.205 19.643.614 28.237.41 8.593 1.023 16.778 1.841 24.553h-49.107a531.962 531.962 0 0 1-1.841-44.196h-1.228c-12.276 18.824-26.804 32.124-43.582 39.9-16.778 7.775-36.216 11.662-58.314 11.662-13.505 0-26.395-1.841-38.672-5.524-12.277-3.683-23.019-9.208-32.226-16.574-9.208-7.366-16.472-16.471-21.792-27.316-5.32-10.844-7.98-23.428-7.98-37.75 0-18.825 4.195-34.58 12.584-47.266 8.39-12.686 19.847-23.019 34.375-30.999 14.527-7.98 31.51-13.709 50.948-17.187 19.439-3.478 40.206-5.218 62.305-5.218h40.513v-12.276c0-7.366-1.432-14.732-4.297-22.098-2.865-7.366-7.161-14.016-12.89-19.95-5.73-5.934-12.891-10.64-21.485-14.118-8.594-3.479-18.824-5.218-30.692-5.218-10.64 0-19.95 1.023-27.93 3.07-7.98 2.045-15.243 4.603-21.79 7.672-6.548 3.07-12.482 6.65-17.802 10.742-5.32 4.093-10.435 7.98-15.345 11.663l-33.148-34.375zm155.914 115.402c-13.096 0-26.497.716-40.207 2.148-13.709 1.432-26.19 4.194-37.444 8.287-11.253 4.092-20.46 9.821-27.622 17.187-7.162 7.366-10.742 16.778-10.742 28.237 0 16.778 5.627 28.85 16.88 36.216 11.254 7.366 26.497 11.049 45.731 11.049 15.141 0 28.032-2.558 38.672-7.673 10.64-5.115 19.233-11.765 25.78-19.95 6.548-8.184 11.254-17.29 14.119-27.315 2.865-10.026 4.297-19.95 4.297-29.771v-18.415h-29.464zM1187.973 7.889h55.246v464.06h-55.246V7.89zm147.32 173.102h55.246v290.958h-55.245V180.991zm-12.89-104.352c0-11.05 3.99-20.564 11.97-28.543 7.98-7.98 17.494-11.97 28.543-11.97 11.05 0 20.564 3.99 28.544 11.97s11.97 17.494 11.97 28.543-3.99 20.563-11.97 28.543-17.494 11.97-28.543 11.97c-11.05 0-20.564-3.99-28.544-11.97s-11.97-17.494-11.97-28.543zm177.399 152.231h-62.611v-47.879h62.61v-65.067c0-38.876 7.47-67.828 22.406-86.857 14.937-19.03 40.615-28.544 77.036-28.544 6.139 0 12.584.205 19.336.614 6.752.41 14.016 1.637 21.791 3.683l-6.138 49.107c-5.32-2.046-10.435-3.478-15.346-4.297-4.91-.818-10.23-1.228-15.96-1.228-10.23 0-18.415 1.535-24.553 4.604-6.139 3.07-10.947 7.469-14.425 13.198-3.479 5.729-5.73 12.583-6.753 20.563-1.023 7.98-1.534 17.085-1.534 27.316v66.908h65.68v47.88h-66.294v243.078h-55.245V228.87zm187.22-47.879h55.245v290.958h-55.245V180.991zm-12.89-104.352c0-11.05 3.99-20.564 11.969-28.543 7.98-7.98 17.494-11.97 28.543-11.97 11.05 0 20.564 3.99 28.544 11.97s11.97 17.494 11.97 28.543-3.99 20.563-11.97 28.543-17.495 11.97-28.544 11.97-20.563-3.99-28.543-11.97-11.97-17.494-11.97-28.543zm197.654 270.088c0 12.686 2.763 24.246 8.287 34.681 5.525 10.436 12.788 19.336 21.791 26.702 9.003 7.366 19.438 13.095 31.306 17.188 11.867 4.092 24.144 6.138 36.83 6.138 17.187 0 32.124-3.99 44.81-11.97s24.349-18.517 34.989-31.612l41.74 31.92c-30.691 39.694-73.66 59.541-128.905 59.541-22.917 0-43.685-3.887-62.304-11.663-18.62-7.775-34.375-18.517-47.266-32.226-12.89-13.71-22.814-29.873-29.77-48.493-6.958-18.62-10.436-38.774-10.436-60.463s3.785-41.843 11.356-60.463c7.57-18.62 18.006-34.784 31.306-48.493 13.3-13.709 29.157-24.45 47.572-32.226 18.415-7.775 38.467-11.663 60.156-11.663 25.781 0 47.572 4.501 65.373 13.504 17.802 9.003 32.431 20.768 43.89 35.296 11.458 14.527 19.745 30.896 24.86 49.107 5.115 18.21 7.673 36.727 7.673 55.552v19.643h-233.258zm174.33-44.197c-.41-12.276-2.353-23.53-5.832-33.76-3.478-10.231-8.696-19.132-15.653-26.702-6.956-7.571-15.652-13.505-26.088-17.802-10.435-4.296-22.61-6.445-36.523-6.445-13.504 0-25.883 2.558-37.137 7.673-11.254 5.115-20.768 11.765-28.543 19.95-7.776 8.184-13.812 17.29-18.108 27.315-4.297 10.026-6.446 19.95-6.446 29.771h174.33zm416.794 169.42h-55.245v-41.742h-1.228c-10.64 15.55-25.27 27.623-43.89 36.217-18.619 8.593-37.75 12.89-57.393 12.89-22.507 0-42.866-3.887-61.076-11.663-18.21-7.775-33.761-18.62-46.652-32.533-12.89-13.914-22.814-30.078-29.77-48.493-6.958-18.415-10.436-38.467-10.436-60.156s3.478-41.843 10.435-60.463c6.957-18.62 16.88-34.784 29.771-48.493 12.89-13.709 28.441-24.45 46.652-32.226 18.21-7.775 38.569-11.663 61.076-11.663 20.87 0 40.513 4.399 58.929 13.197 18.415 8.799 32.533 20.768 42.354 35.91h1.228V7.889h55.245v464.06zm-151.004-44.197c14.733 0 28.032-2.558 39.9-7.673 11.867-5.115 21.893-12.072 30.078-20.87 8.184-8.799 14.527-19.439 19.029-31.92 4.501-12.481 6.752-26.088 6.752-40.82s-2.25-28.339-6.752-40.82c-4.502-12.481-10.845-23.121-19.03-31.92-8.184-8.798-18.21-15.755-30.077-20.87-11.868-5.115-25.167-7.673-39.9-7.673-14.732 0-28.031 2.558-39.899 7.673-11.867 5.115-21.893 12.072-30.078 20.87-8.184 8.799-14.527 19.439-19.029 31.92-4.501 12.481-6.752 26.088-6.752 40.82s2.25 28.339 6.752 40.82c4.502 12.481 10.845 23.121 19.03 31.92 8.184 8.798 18.21 15.755 30.077 20.87 11.868 5.115 25.167 7.673 39.9 7.673z"/><ellipse cx="2663.141" cy="66.918" rx="47.799" ry="47.799"/><ellipse fill-opacity=".6" cx="2663.141" cy="253.081" rx="47.799" ry="47.799"/><circle fill-opacity=".4" cx="2663.141" cy="429.182" r="47.799"/></g></svg>