<?xml version="1.0" standalone="no"?><!DOCTYPE svg PUBLIC "-//W3C//DTD SVG 1.1//EN" "http://www.w3.org/Graphics/SVG/1.1/DTD/svg11.dtd"><svg class="icon" height="512" viewBox="0 0 1024 1024" version="1.1" xmlns="http://www.w3.org/2000/svg"><path d="M820.324 1c0 81.184-391.804 143.692-616.648 158.384v230.86c94.974 6.202 219.658 21.416 332.096 42.568-112.43 21.136-237.136 35.974-332.096 42.176v230.866c94.854 6.204 219.38 21.062 331.712 42.184-112.334 21.108-236.86 35.974-331.712 42.184V1023l111.602-16.11c207.81-31.298 437.118-90.45 505.046-142.268V631.454c0-14.522-26.618-30.276-69.418-46.398 30.004-12.15 53.986-24.27 69.418-36.042v-232.78c0-14.454-26.28-30.38-68.642-46.408 29.696-12.044 53.3-24.352 68.642-36.048V1z m-69.298 608.894c30.728 12.194 41.778 20.452 45.444 23.93-2.468 4.922-11.93 15.116-38.624 28.062-4.296 2.054-9.01 4.118-13.044 5.864l0.032 0.076c-46.166 19.858-118.032 39.322-209.466 56.682-44.834-8.342-93.07-15.966-141.622-22.484 136.538-24.458 271.43-58.662 357.28-92.13z m0.762-315.218c30.26 12.104 41.114 20.376 44.698 23.854-1.86 3.726-7.812 10.734-22.882 19.774l-0.068-0.114a259.494 259.494 0 0 1-9.8 5.578c-44.014 22.944-122.524 45.578-227.208 65.51-45.134-8.422-93.474-16.1-141.998-22.666 137.266-24.288 270.804-58.116 357.258-91.936z" fill="" /></svg>